<?xml version="1.0" encoding="UTF-8" standalone="no"?>
<!DOCTYPE svg PUBLIC "-//W3C//DTD SVG 1.1//EN" "http://www.w3.org/Graphics/SVG/1.1/DTD/svg11.dtd">
<svg width="100%" height="100%" viewBox="0 0 1667 1667" version="1.1" xmlns="http://www.w3.org/2000/svg" xmlns:xlink="http://www.w3.org/1999/xlink" xml:space="preserve" xmlns:serif="http://www.serif.com/" style="fill-rule:evenodd;clip-rule:evenodd;stroke-miterlimit:22.9256;">
    <g transform="matrix(1,0,0,1,0,-429.02)">
        <g id="Capa-1" serif:id="Capa 1">
        </g>
        <g id="Mesa-de-trabajo1" serif:id="Mesa de trabajo1" transform="matrix(0.846218,0,0,0.870659,-2328.35,392.251)">
            <rect x="2751.48" y="42.232" width="1969.55" height="1914.26" style="fill:none;"/>
            <clipPath id="_clip1">
                <rect x="2751.48" y="42.232" width="1969.55" height="1914.26"/>
            </clipPath>
            <g clip-path="url(#_clip1)">
                <g transform="matrix(3.20531,0,0,3.11533,2758.18,47.8046)">
                    <g transform="matrix(1,0,0,1,1,0.6624)">
                        <path d="M304.143,608.34C471.96,608.34 608.002,472.297 608.002,304.48C608.002,136.663 471.96,0.621 304.143,0.621C136.326,0.621 0.284,136.663 0.284,304.48C0.284,472.297 136.326,608.34 304.143,608.34Z" style="fill:rgb(0,136,170);stroke:rgb(0,136,170);stroke-width:0.87px;"/>
                    </g>
                    <g transform="matrix(662.841,0,0,620.288,211.861,482.806)">
                        <path d="M0.192,-0.455L0.192,-0.439C0.217,-0.47 0.243,-0.493 0.27,-0.507C0.297,-0.522 0.328,-0.529 0.362,-0.529C0.403,-0.529 0.441,-0.518 0.475,-0.497C0.51,-0.476 0.537,-0.445 0.557,-0.404C0.577,-0.364 0.587,-0.315 0.587,-0.26C0.587,-0.219 0.581,-0.181 0.57,-0.147C0.558,-0.112 0.542,-0.084 0.522,-0.06C0.502,-0.037 0.478,-0.019 0.45,-0.007C0.423,0.006 0.393,0.012 0.362,0.012C0.324,0.012 0.292,0.005 0.266,-0.011C0.24,-0.026 0.215,-0.049 0.192,-0.078L0.192,0.122C0.192,0.181 0.171,0.21 0.128,0.21C0.103,0.21 0.086,0.202 0.078,0.187C0.07,0.172 0.066,0.15 0.066,0.121L0.066,-0.454C0.066,-0.479 0.071,-0.498 0.083,-0.511C0.094,-0.524 0.109,-0.53 0.128,-0.53C0.147,-0.53 0.162,-0.523 0.174,-0.51C0.186,-0.498 0.192,-0.479 0.192,-0.455ZM0.453,-0.261C0.453,-0.296 0.448,-0.327 0.437,-0.352C0.426,-0.377 0.411,-0.396 0.392,-0.41C0.373,-0.423 0.352,-0.43 0.329,-0.43C0.292,-0.43 0.261,-0.416 0.236,-0.387C0.211,-0.358 0.198,-0.315 0.198,-0.259C0.198,-0.206 0.211,-0.164 0.236,-0.135C0.261,-0.106 0.292,-0.091 0.329,-0.091C0.351,-0.091 0.372,-0.097 0.391,-0.11C0.41,-0.123 0.425,-0.142 0.436,-0.168C0.447,-0.194 0.453,-0.225 0.453,-0.261Z" style="fill:white;fill-rule:nonzero;"/>
                    </g>
                    <g transform="matrix(1.82629,0,0,1.82629,-108.565,-858.359)">
                        <path d="M169.542,571.309C192.244,571.309 210.648,552.905 210.648,530.203C210.648,507.501 192.244,489.097 169.542,489.097C146.84,489.097 128.436,507.501 128.436,530.203C128.436,552.905 146.84,571.309 169.542,571.309Z" style="fill:rgb(255,212,42);stroke:rgb(255,212,42);stroke-width:0.48px;"/>
                    </g>
                </g>
            </g>
        </g>
    </g>
</svg>
